<?xml version="1.0" encoding="UTF-8" standalone="no"?>
<!-- Created with Inkscape (http://www.inkscape.org/) -->

<svg
        width="92.753937mm"
        height="55.755264mm"
        viewBox="0 0 92.753937 55.755264"
        version="1.1"
        id="svg1"
        xml:space="preserve"
        xmlns="http://www.w3.org/2000/svg"
><defs
     id="defs1" /><g
     id="layer1"
     transform="translate(-48.234018,-162.15615)"><path
       style="fill:#fff"
       d="m 79.444809,215.29178 c -4.584177,-2.76359 -7.570907,-7.34668 -10.744915,-11.50288 -4.123873,-1.83249 -5.777393,4.84097 -8.989268,6.52612 -3.046393,2.6451 -7.502844,4.0266 -11.447109,4.46074 0.0069,-0.14325 0.07478,-8.87005 0.07478,-8.87005 0.02696,-0.08 -0.331346,-28.54854 0.144097,-42.81026 1.02489,-1.54172 6.939207,3.41112 7.826272,4.10717 3.498954,2.33938 6.792435,4.96606 9.461599,8.24169 3.264392,3.85555 5.453324,-3.43044 7.602024,-5.23066 4.051574,-4.98163 10.273209,-8.61824 16.870005,-7.98605 11.601926,1.17685 22.587006,5.94593 32.387066,12.11759 6.47528,4.31914 12.67044,9.17475 18.07736,14.78165 1.61329,3.5712 -4.91114,6.99009 -6.14121,7.82107 -4.78623,3.68966 -22.98063,15.59193 -36.002872,20.25143 -5.528199,1.02839 -11.425454,1.06638 -16.789763,-0.70992 -0.795231,-0.36149 -1.541664,-0.81852 -2.328061,-1.19764 z m 46.001411,-22.59042 c 2.55092,-0.37581 9.28473,0.10383 9.74344,-4.21121 -3.26649,-3.54999 -7.74647,-5.77976 -11.62777,-8.6077 -10.21317,-6.65533 -21.16535,-13.42201 -33.596089,-14.51982 -6.288005,-0.3517 -11.458488,4.52027 -14.75683,9.3808 -2.290309,3.7866 -3.652641,8.17882 -3.561369,12.62273 3.118957,-0.0314 5.363363,-3.28321 8.533477,-3.71198 4.86358,-1.18174 9.083833,2.41791 13.392947,4.02972 9.887464,4.63862 24.315154,5.77333 31.872194,5.01746 z"
       id="path759" /></g></svg>
